<?xml version="1.0" encoding="utf-8"?>
<svg version="1.1" id="Layer_1" xmlns="http://www.w3.org/2000/svg" xmlns:xlink="http://www.w3.org/1999/xlink" x="0px" y="0px"
	 viewBox="0 0 163.2 25.7" style="enable-background:new 0 0 163.2 25.7;" xml:space="preserve">
<style type="text/css">
	.st0{fill:none;stroke:#000000;stroke-width:0.5;}
</style>
<g>
	<path d="M12.4,12.4h-1.8l-0.3,1.8h1.5v1.9h-1.8l-0.5,3.6h-2l0.5-3.6H6.7l-0.5,3.6h-2l0.5-3.6H3.2v-1.9H5l0.3-1.8H3.7v-1.9h1.8
		L6,6.9h2l-0.5,3.6h1.4l0.5-3.6h2l-0.5,3.6h1.5V12.4z M8.6,12.4H7.2L7,14.2h1.4L8.6,12.4z"/>
	<path d="M24.6,16c0,0.7-0.1,1.2-0.4,1.7s-0.6,0.9-1.1,1.2c-0.5,0.3-1,0.5-1.6,0.6c-0.6,0.1-1.2,0.2-1.8,0.2h-5.1V6.9h5.1
		c0.5,0,1.1,0.1,1.5,0.2c0.5,0.1,0.9,0.3,1.4,0.5s0.8,0.6,1.1,1c0.3,0.5,0.4,1,0.4,1.6c0,0.7-0.2,1.3-0.6,1.7s-0.9,0.8-1.5,1v0
		c0.8,0.1,1.4,0.5,1.9,1C24.3,14.5,24.6,15.2,24.6,16z M21.1,10.6c0-0.8-0.7-1.2-2-1.2h-1.5V12h1.7c0.6,0,1-0.1,1.3-0.4
		S21.1,11,21.1,10.6z M21.5,15.7c0-0.9-0.7-1.4-2.2-1.4h-1.7v2.9h1.7C20.7,17.2,21.5,16.7,21.5,15.7z"/>
	<path d="M34.7,19.7h-8.1V6.9h3.1V17h5V19.7z"/>
	<path d="M48.3,19.7h-3.4l-1-2.5h-5l-0.9,2.5h-3.4l5.4-12.8h3L48.3,19.7z M43,14.7l-1.6-4.4l-1.6,4.4H43z"/>
	<path d="M60.3,17.9c-1.2,1.4-2.9,2.1-5,2.1c-2,0-3.6-0.6-4.9-1.9s-2-2.9-2-4.9c0-2,0.7-3.6,2-4.9c1.3-1.2,3-1.9,5-1.9
		c0.9,0,1.8,0.2,2.7,0.5c0.9,0.3,1.6,0.8,2.1,1.4l-2.1,2.1c-0.3-0.4-0.6-0.7-1.1-0.9s-1-0.3-1.5-0.3c-1.1,0-2,0.4-2.7,1.1
		c-0.7,0.7-1,1.7-1,2.8c0,1.2,0.3,2.1,1,2.8c0.7,0.7,1.6,1.1,2.6,1.1c1.2,0,2.1-0.4,2.7-1.3L60.3,17.9z"/>
	<path d="M73.5,19.7h-4l-4.8-5.9h0v5.9h-3V6.9h3v5.2h0.1l4.6-5.2h3.9l-5.5,5.9L73.5,19.7z"/>
	<path d="M89.1,19.7h-3l0.1-9.1h-0.1l-3.3,9.1h-2.2l-3.2-9.1h-0.1l0.1,9.1h-2.9V6.9h4.4l2.9,8.2h0.1l2.8-8.2h4.5V19.7z"/>
	<path d="M105.2,13.2c0,2-0.7,3.7-2,4.9c-1.3,1.3-3,1.9-5,1.9c-2,0-3.7-0.6-5-1.9c-1.3-1.3-2-2.9-2-4.9c0-2,0.7-3.7,2-4.9
		c1.3-1.2,3-1.8,5-1.8c2,0,3.7,0.6,5,1.8C104.5,9.6,105.2,11.2,105.2,13.2z M101.8,13.2c0-1.1-0.3-2.1-1-2.8
		c-0.7-0.7-1.6-1.1-2.6-1.1c-1.1,0-2,0.4-2.6,1.1c-0.7,0.7-1,1.7-1,2.8c0,1.2,0.3,2.1,1,2.9c0.7,0.7,1.6,1.1,2.6,1.1
		c1.1,0,2-0.4,2.6-1.1C101.5,15.3,101.8,14.4,101.8,13.2z"/>
	<path d="M120.6,13.2c0,2-0.7,3.7-2,4.9c-1.3,1.3-3,1.9-5,1.9c-2,0-3.7-0.6-5-1.9c-1.3-1.3-2-2.9-2-4.9c0-2,0.7-3.7,2-4.9
		c1.3-1.2,3-1.8,5-1.8c2,0,3.7,0.6,5,1.8C119.9,9.6,120.6,11.2,120.6,13.2z M117.2,13.2c0-1.1-0.3-2.1-1-2.8
		c-0.7-0.7-1.6-1.1-2.6-1.1c-1.1,0-2,0.4-2.6,1.1c-0.7,0.7-1,1.7-1,2.8c0,1.2,0.3,2.1,1,2.9c0.7,0.7,1.6,1.1,2.6,1.1
		c1.1,0,2-0.4,2.6-1.1C116.9,15.3,117.2,14.4,117.2,13.2z"/>
	<path d="M134.3,19.7h-3.5l-5.2-8.4h-0.1l0.1,8.4h-3V6.9h3.5l5.1,8.4h0.1l-0.1-8.4h3V19.7z"/>
	<path class="st0" d="M148.8,19.7h-4l-4.8-5.9h0v5.9h-3V6.9h3v5.2h0.1l4.6-5.2h3.9l-5.5,5.9L148.8,19.7z"/>
	<path class="st0" d="M160.5,18.9c-1.4,0.7-3.1,1.1-4.9,1.1c-2.1,0-3.8-0.6-5.1-1.9c-1.3-1.3-2-2.9-2-4.9c0-2,0.7-3.6,2-4.9
		c1.3-1.2,3-1.9,5-1.9c1,0,1.9,0.2,2.8,0.5c0.9,0.3,1.6,0.7,2.1,1.2l-2,2.2c-0.7-0.8-1.6-1.2-2.9-1.2c-1.1,0-2,0.4-2.7,1.1
		c-0.7,0.8-1.1,1.7-1.1,2.9c0,1.2,0.3,2.2,1,2.9c0.7,0.7,1.6,1.1,2.9,1.1c0.8,0,1.4-0.1,1.9-0.3v-2.3h-2.4v-2.5h5.3V18.9z"/>
</g>
</svg>
